<?xml version="1.0" standalone="no"?>
<!DOCTYPE svg PUBLIC "-//W3C//DTD SVG 20010904//EN"
 "http://www.w3.org/TR/2001/REC-SVG-20010904/DTD/svg10.dtd">
<svg version="1.0" xmlns="http://www.w3.org/2000/svg"
 width="83.000000pt" height="83.000000pt" viewBox="0 0 83.000000 83.000000"
 preserveAspectRatio="xMidYMid meet">
<metadata>
Created by potrace 1.14, written by Peter Selinger 2001-2017
</metadata>
<g transform="translate(0.000000,83.000000) scale(0.100000,-0.100000)"
fill="#000000" stroke="none">
<path d="M305 644 c-42 -43 -64 -151 -41 -205 14 -34 14 -39 -4 -75 -47 -92
-6 -166 84 -151 18 3 38 1 43 -4 15 -15 109 -7 106 8 -2 9 11 10 45 6 37 -4
51 -2 61 11 18 22 8 91 -18 127 -18 25 -19 30 -7 54 16 31 12 74 -10 89 -13
10 -21 40 -23 87 -1 8 -7 24 -15 35 -14 18 -16 18 -48 -13 -47 -46 -92 -42
-125 10 -27 43 -26 42 -48 21z"/>
</g>
</svg>
